<svg xmlns="http://www.w3.org/2000/svg" version="1.1" xmlns:xlink="http://www.w3.org/1999/xlink" xmlns:svgjs="http://svgjs.com/svgjs" width="32" height="32" x="0" y="0" viewBox="0 0 64 64" style="enable-background:new 0 0 512 512" xml:space="preserve" class=""><g><path fill="#C1CFE8" d="M28.424 46.802 32 62l3.576-15.198" data-original="#c1cfe8"></path><path fill="#F79B31" d="M50 33v4c0 5.523-8.059 10-18 10s-18-4.477-18-10v-4" data-original="#f79b31"></path><path fill="#FCB732" d="M25 23.784C18.536 25.3 14 28.856 14 33c0 5.523 8.059 10 18 10s18-4.477 18-10c0-4.142-4.533-7.7-10.994-9.214" data-original="#fcb732"></path><path fill="#FFC76F" d="M39.006 23.786 25 23.784a20.6 20.6 0 0 0-7.208 3.078A6.609 6.609 0 0 0 16 31.216c0 5.522 8.059 10 18 10 5.765 0 10.884-1.512 14.178-3.854A6.629 6.629 0 0 0 50 33c0-4.142-4.533-7.7-10.994-9.214z" data-original="#ffc76f" class=""></path><path fill="#EC8329" d="M25 19.063V29c0 1.657 3.134 3 7 3s7-1.343 7-3v-9.937" data-original="#ec8329"></path><path fill="#F79B31" d="M46 9v4c0 3.866-6.268 7-14 7s-14-3.134-14-7V9" data-original="#f79b31"></path><ellipse cx="32" cy="9" fill="#FCB732" rx="14" ry="7" data-original="#fcb732"></ellipse><path fill="#FFC76F" d="M32 2c-4.693 0-8.837 1.159-11.377 2.931A3.909 3.909 0 0 0 20 7c0 3.866 6.268 7 14 7 4.693 0 8.837-1.159 11.377-2.931A3.909 3.909 0 0 0 46 9c0-3.866-6.268-7-14-7z" data-original="#ffc76f" class=""></path><path fill="#F79B31" d="M30.839 21.978A3.739 3.739 0 0 0 27 25.737v2.2c0 1.657 3.134 3 7 3a13.8 13.8 0 0 0 4.3-.637A1.783 1.783 0 0 0 39 29v-7.856A27.854 27.854 0 0 1 32 22q-.586 0-1.161-.022z" data-original="#f79b31"></path><path fill="#D7E0EF" d="m30.117 47.947 2.6 11.027 2.623-11.147A33.988 33.988 0 0 1 32 48c-.637 0-1.264-.02-1.883-.053z" data-original="#d7e0ef"></path></g></svg>